<svg width="20" height="20" viewBox="0 0 20 20" fill="none" xmlns="http://www.w3.org/2000/svg">
<g clip-path="url(#clip0_2090_11312)">
<path fill-rule="evenodd" clip-rule="evenodd" d="M6.07617 0.616593C4.52968 0.68637 3.18927 1.06447 2.10692 2.14225C1.02079 3.2257 0.647384 4.57142 0.577433 6.10182C0.53395 7.05703 0.279682 14.2734 1.01701 16.1659C1.51423 17.4426 2.49352 18.4243 3.78194 18.9231C4.38315 19.157 5.06944 19.3153 6.07617 19.3615C14.4939 19.7424 17.6143 19.535 18.9302 16.1659C19.1637 15.5662 19.3244 14.8805 19.3688 13.8762C19.7535 5.43687 19.3064 3.60759 17.8393 2.14225C16.6757 0.981485 15.3069 0.191325 6.07617 0.616593ZM6.15367 17.6642C5.23201 17.6227 4.73196 17.4691 4.39828 17.3399C3.55886 17.0137 2.92836 16.3858 2.60413 15.5513C2.04263 14.1133 2.22886 7.2835 2.27896 6.17836C2.32811 5.09586 2.54741 4.10652 3.31121 3.34274C4.25649 2.39979 5.47779 1.93766 13.7935 2.31296C14.8787 2.36198 15.8703 2.58084 16.636 3.34274C17.5813 4.28568 18.0501 5.51638 17.6682 13.8002C17.6266 14.7195 17.4725 15.2184 17.343 15.5513C16.4876 17.7436 14.5195 18.0479 6.15367 17.6642ZM13.8852 4.95514C13.8852 5.57938 14.3928 6.08698 15.0195 6.08698C15.6463 6.08698 16.1548 5.57938 16.1548 4.95514C16.1548 4.33092 15.6463 3.82377 15.0195 3.82377C14.3928 3.82377 13.8852 4.33092 13.8852 4.95514ZM5.11953 9.98857C5.11953 12.6628 7.29275 14.8309 9.97359 14.8309C12.6544 14.8309 14.8276 12.6628 14.8276 9.98857C14.8276 7.31437 12.6544 5.14765 9.97359 5.14765C7.29275 5.14765 5.11953 7.31437 5.11953 9.98857ZM6.82294 9.98857C6.82294 8.25355 8.23331 6.84587 9.97359 6.84587C11.7139 6.84587 13.1242 8.25355 13.1242 9.98857C13.1242 11.7245 11.7139 13.1327 9.97359 13.1327C8.23331 13.1327 6.82294 11.7245 6.82294 9.98857Z" fill="#141414"/>
</g>
<defs>
<clipPath id="clip0_2090_11312">
<rect width="20" height="20" fill="white"/>
</clipPath>
</defs>
</svg>
