<?xml version="1.0" encoding="UTF-8"?>
<svg version="1.1" xmlns="http://www.w3.org/2000/svg" width="512" height="512">
<path d="M0 0 C3.65468642 0.00564362 7.3093682 0.008462 10.96405792 0.0110817 C44.81368547 0.04635398 78.54411143 0.28886188 112.29944611 3.05511856 C115.83614189 3.34237507 119.37380084 3.61505873 122.91175079 3.88641739 C130.58104494 4.47907531 138.24684699 5.10877554 145.91175079 5.75555801 C147.08501923 5.85275131 148.25828766 5.94994461 149.46710968 6.05008316 C184.74413852 9.02746114 184.74413852 9.02746114 199.41175079 16.50555801 C200.59523102 17.09083267 200.59523102 17.09083267 201.80261993 17.68793106 C219.04193013 26.47248391 231.97217087 39.69343765 241.53675079 56.31805801 C242.02788361 57.1469252 242.51901642 57.97579239 243.02503204 58.82977676 C251.55396857 74.38254336 253.02845627 91.98748459 254.53675079 109.31805801 C254.61345001 110.19363358 254.69014923 111.06920914 254.76917267 111.97131729 C255.40501002 119.27233841 256.00783208 126.57581762 256.59925079 133.88055801 C256.68151917 134.88076981 256.76378754 135.8809816 256.84854889 136.91150284 C257.48344174 144.70920153 258.03506366 152.51068184 258.53675079 160.31805801 C258.58146767 161.01067482 258.62618454 161.70329163 258.67225647 162.41689682 C260.51917063 191.32864609 260.8532304 220.19117597 260.79749298 249.15594864 C260.7860995 255.12165468 260.79288812 261.08718221 260.80436802 267.05288219 C260.85090221 295.5321522 260.37183092 323.89461864 258.53675079 352.31805801 C258.45406952 353.60476395 258.37138824 354.89146988 258.28620148 356.2171669 C257.78898375 363.73557904 257.2169052 371.24616883 256.59925079 378.75555801 C256.5127124 379.82441238 256.42617401 380.89326675 256.33701324 381.99451065 C255.76001259 389.10441819 255.15923233 396.21199323 254.53675079 403.31805801 C254.43523712 404.48446823 254.43523712 404.48446823 254.33167267 405.67444229 C251.5983664 436.79133774 243.31233914 463.38873949 218.53675079 484.31805801 C191.54856392 505.07281418 159.49716624 505.7550461 126.97425079 508.38055801 C125.97431091 508.46273575 124.97437103 508.54491348 123.94412994 508.62958145 C116.14615627 509.26455692 108.3444826 509.81742699 100.53675079 510.31805801 C99.84192471 510.3626276 99.14709862 510.40719719 98.43121719 510.45311737 C68.64954911 512.34068022 38.90871327 512.68292 9.07350159 512.63611603 C5.41881516 512.63047241 1.76413339 512.62765403 -1.89055634 512.62503433 C-35.73928403 512.58976298 -69.46823988 512.3461352 -103.22270966 509.58099747 C-106.76584039 509.29350557 -110.30994945 509.02090898 -113.85436249 508.74969864 C-121.53914128 508.15733129 -129.22037437 507.52732973 -136.90074921 506.88055801 C-138.66705688 506.73476807 -138.66705688 506.73476807 -140.46904755 506.58603287 C-172.38761359 503.90182921 -199.85380067 496.41048488 -222.1404953 471.88788223 C-226.17339171 467.10170211 -229.33263196 461.71742217 -232.46324921 456.31805801 C-232.95567108 455.48790176 -233.44809296 454.65774551 -233.95543671 453.80243301 C-242.47907026 438.23753695 -243.93585479 420.65489383 -245.46324921 403.31805801 C-245.53994843 402.45708511 -245.61664764 401.59611221 -245.69567108 400.70904922 C-246.33029172 393.55988536 -246.93351439 386.40834583 -247.52574921 379.25555801 C-247.60801758 378.27926437 -247.69028595 377.30297073 -247.7750473 376.29709244 C-250.88565797 339.01154121 -251.81794087 301.79948765 -251.77892303 264.39471817 C-251.7743138 259.61858012 -251.78115577 254.84269815 -251.79943085 250.06659317 C-251.96627719 205.95060768 -250.3657525 161.94960801 -246.2654953 118.01214981 C-245.94871721 114.59898101 -245.65284588 111.18433894 -245.35778046 107.76922989 C-243.09932507 82.39475965 -238.0200805 58.89113318 -220.46324921 39.31805801 C-219.65113983 38.41184708 -218.83903046 37.50563614 -218.00231171 36.57196426 C-211.2088347 29.39000396 -203.97493071 24.25323485 -195.46324921 19.31805801 C-194.63309296 18.82563614 -193.80293671 18.33321426 -192.94762421 17.82587051 C-177.38905589 9.30570215 -159.79635954 7.82657333 -142.46324921 6.31805801 C-141.58767365 6.2413588 -140.71209808 6.16465958 -139.80998993 6.08563614 C-132.50896881 5.44979879 -125.2054896 4.84697673 -117.90074921 4.25555801 C-116.40043152 4.13215546 -116.40043152 4.13215546 -114.86980438 4.00625992 C-107.07211144 3.37136754 -99.27069418 2.81867065 -91.46324921 2.31805801 C-90.42101007 2.25120363 -90.42101007 2.25120363 -89.35771561 2.18299866 C-59.57604753 0.29543581 -29.83521169 -0.04680397 0 0 Z " fill="#010101" transform="translate(251.46324920654297,-0.3180580139160156)"/>
<path d="M0 0 C16.5 0 33 0 50 0 C50.25 16.1875 50.25 16.1875 50.29785156 21.20776367 C50.58173076 37.14903308 54.66739991 50.31346747 65.6875 62.25 C78.87781186 74.65093026 93.492234 76.43191593 110.6875 76.6875 C116.070625 76.790625 121.45375 76.89375 127 77 C127 93.5 127 110 127 127 C121.18375 127.061875 115.3675 127.12375 109.375 127.1875 C106.66869385 127.22846802 106.66869385 127.22846802 103.90771484 127.27026367 C94.16338867 127.35554872 85.45231483 126.5715744 76 124 C74.93378418 123.72470459 73.86756836 123.44940918 72.76904297 123.16577148 C66.69789012 121.46503255 61.18192826 119.22981339 55.59375 116.359375 C54.9553418 116.03565918 54.31693359 115.71194336 53.65917969 115.37841797 C52.10424185 114.58930157 50.55184821 113.79517515 49 113 C49.00368717 113.58547261 49.00737434 114.17094522 49.01117325 114.77415943 C49.10003382 129.10947144 49.16595483 143.44475864 49.20724869 157.78028584 C49.22775583 164.71324451 49.25564528 171.64601784 49.30175781 178.57885742 C49.34632927 185.28327634 49.36921168 191.98746407 49.37950897 198.69203758 C49.38683686 201.23579097 49.4011442 203.77953521 49.42292023 206.32320595 C49.70314141 240.44751686 42.10787512 266.74178032 18.3125 292.0625 C6.05161738 303.8648063 -10.25762621 313.43273286 -27 317 C-27.92039063 317.19867676 -27.92039063 317.19867676 -28.859375 317.40136719 C-56.23855121 323.12680582 -82.71561399 319.84217877 -106.7578125 305.125 C-131.77613644 288.72744792 -146.30136394 265.31311512 -153.8125 236.9296875 C-158.9394243 211.93593153 -153.25053754 184.98777018 -139.625 163.625 C-123.74215449 139.74000718 -101.04416326 123.33035724 -73 117 C-67.61016127 116.07395553 -62.44977492 115.86683755 -57.00390625 115.90234375 C-55.89396301 115.90385437 -55.89396301 115.90385437 -54.76159668 115.90539551 C-52.02854842 115.91058103 -49.29552246 115.92454185 -46.5625 115.9375 C-37.3740625 115.9684375 -37.3740625 115.9684375 -28 116 C-28 132.17 -28 148.34 -28 165 C-32.640625 165.0825 -37.28125 165.165 -42.0625 165.25 C-59.97086978 165.76624621 -75.69446508 168.01124332 -89.375 180.8125 C-100.04862124 192.30546561 -104.36185825 205.7621582 -104.1484375 221.09375 C-103.60567742 235.37691008 -96.51733227 247.99079216 -86.3125 257.6875 C-76.83111304 265.6193996 -65.77460491 269.36639814 -53.5625 269.25 C-52.75490234 269.25773437 -51.94730469 269.26546875 -51.11523438 269.2734375 C-37.65205356 269.23004288 -24.66269256 263.58178427 -14.9609375 254.22265625 C-4.83845204 242.74916178 -0.85899056 229.80163598 -0.84178162 214.77456665 C-0.83684364 213.85472437 -0.83190566 212.93488209 -0.82681805 211.98716581 C-0.81148091 208.9102282 -0.80309268 205.8333114 -0.79467773 202.75634766 C-0.78509624 200.5485923 -0.775086 198.34083877 -0.76467896 196.13308716 C-0.73765328 190.14190967 -0.71663103 184.15072433 -0.69667697 178.15951967 C-0.67480303 171.89745942 -0.64742122 165.63542333 -0.62062073 159.37338257 C-0.57638407 148.86367869 -0.53554561 138.3539655 -0.49731445 127.84423828 C-0.45793228 117.02066073 -0.41649956 106.19709422 -0.37231445 95.37353516 C-0.36822804 94.37226915 -0.36822804 94.37226915 -0.36405908 93.35077555 C-0.35037916 90.00196726 -0.33665897 86.65315914 -0.32291877 83.30435109 C-0.20912805 55.53625557 -0.1030118 27.76813775 0 0 Z " fill="#FDFDFD" transform="translate(270,96)"/>
</svg>
